<svg width="24" height="24" viewBox="0 0 24 24" fill="none" xmlns="http://www.w3.org/2000/svg">
<path d="M10.1652 6.59821C9.95421 7.47821 9.64021 8.36021 9.00021 9.00021C8.36021 9.64021 7.47921 9.95421 6.59821 10.1652C5.16877 10.5075 3.91472 11.3627 3.07399 12.5684C2.23327 13.774 1.86437 15.2464 2.03728 16.706C2.2102 18.1657 2.9129 19.5111 4.01205 20.487C5.11121 21.4629 6.53035 22.0013 8.00021 22.0002C15.7322 22.0002 22.0002 15.7322 22.0002 8.00021C22.0013 6.53035 21.4629 5.11121 20.487 4.01205C19.5111 2.9129 18.1657 2.2102 16.706 2.03728C15.2464 1.86437 13.774 2.23327 12.5684 3.07399C11.3627 3.91472 10.5075 5.16877 10.1652 6.59821Z" fill="#228C22" stroke="black" stroke-width="2" stroke-linecap="round" stroke-linejoin="round"/>
<path d="M5.34082 10.6198C5.60446 11.2131 6.00855 11.7333 6.51818 12.1355C7.02782 12.5377 7.62769 12.8098 8.26601 12.9283C8.90432 13.0468 9.56188 13.0081 10.1819 12.8157C10.8019 12.6232 11.3658 12.2828 11.8248 11.8236C12.2839 11.3645 12.6242 10.8006 12.8166 10.1805C13.0089 9.56045 13.0474 8.90288 12.9288 8.26459C12.8102 7.6263 12.538 7.02648 12.1357 6.51692C11.7334 6.00736 11.2131 5.60337 10.6198 5.33984" fill="white" fill-opacity="0.57"/>
<path d="M5.34082 10.6198C5.60446 11.2131 6.00855 11.7333 6.51818 12.1355C7.02782 12.5377 7.62769 12.8098 8.26601 12.9283C8.90432 13.0468 9.56188 13.0081 10.1819 12.8157C10.802 12.6232 11.3658 12.2828 11.8248 11.8236C12.2839 11.3645 12.6242 10.8006 12.8166 10.1805C13.0089 9.56045 13.0474 8.90288 12.9288 8.26459C12.8102 7.6263 12.538 7.02648 12.1357 6.51692C11.7334 6.00736 11.2131 5.60337 10.6198 5.33984" stroke="black" stroke-width="2" stroke-linecap="round" stroke-linejoin="round"/>
</svg>
