<svg width="50" height="50" viewBox="0 0 50 50" fill="none" xmlns="http://www.w3.org/2000/svg">
<path d="M21.1772 13.746C20.7377 15.5793 20.0835 17.4168 18.7502 18.7502C17.4168 20.0835 15.5814 20.7377 13.746 21.1772C10.768 21.8904 8.15538 23.672 6.40387 26.1838C4.65236 28.6956 3.88382 31.763 4.24405 34.804C4.60429 37.8449 6.06825 40.6479 8.35816 42.6809C10.6481 44.714 13.6046 45.8358 16.6668 45.8335C32.7752 45.8335 45.8335 32.7752 45.8335 16.6668C45.8358 13.6046 44.714 10.6481 42.6809 8.35816C40.6479 6.06825 37.8449 4.60429 34.804 4.24405C31.763 3.88382 28.6956 4.65236 26.1838 6.40387C23.672 8.15538 21.8904 10.768 21.1772 13.746V13.746Z" stroke="#E9EAEA" stroke-width="4" stroke-linecap="round" stroke-linejoin="round"/>
<path d="M11.127 22.125C11.6762 23.361 12.518 24.4447 13.5798 25.2826C14.6415 26.1205 15.8913 26.6874 17.2211 26.9342C18.5509 27.1811 19.9208 27.1006 21.2126 26.6997C22.5043 26.2987 23.679 25.5894 24.6353 24.6329C25.5916 23.6764 26.3008 22.5016 26.7015 21.2097C27.1022 19.9179 27.1824 18.548 26.9353 17.2182C26.6881 15.8885 26.121 14.6388 25.2829 13.5772C24.4449 12.5157 23.361 11.674 22.1249 11.125" stroke="#E9EAEA" stroke-width="4" stroke-linecap="round" stroke-linejoin="round"/>
</svg>
