<svg width="70" height="70" viewBox="0 0 70 70" fill="none" xmlns="http://www.w3.org/2000/svg">
<g clip-path="url(#clip0_256_2882)">
<path d="M30.3531 19.1237C30.2212 19.6737 30.0249 20.2249 29.6249 20.6249C29.2249 21.0249 28.6743 21.2212 28.1237 21.3531C27.2303 21.567 26.4465 22.1015 25.9211 22.855C25.3956 23.6086 25.165 24.5288 25.2731 25.4411C25.3812 26.3534 25.8204 27.1943 26.5073 27.8042C27.1943 28.4141 28.0813 28.7507 28.9999 28.7499C33.8324 28.7499 37.7499 24.8324 37.7499 19.9999C37.7507 19.0813 37.4141 18.1943 36.8042 17.5073C36.1943 16.8204 35.3534 16.3812 34.4411 16.2731C33.5288 16.165 32.6086 16.3956 31.855 16.9211C31.1015 17.4465 30.567 18.2303 30.3531 19.1237V19.1237Z" stroke="black" stroke-width="2" stroke-linecap="round" stroke-linejoin="round"/>
<path d="M27.3379 21.6374C27.5027 22.0082 27.7552 22.3333 28.0737 22.5847C28.3923 22.8361 28.7672 23.0061 29.1661 23.0802C29.5651 23.1542 29.9761 23.1301 30.3636 23.0098C30.7511 22.8895 31.1035 22.6767 31.3904 22.3898C31.6773 22.1028 31.89 21.7504 32.0102 21.3628C32.1305 20.9753 32.1545 20.5643 32.0804 20.1654C32.0062 19.7664 31.8361 19.3916 31.5847 19.0731C31.3333 18.7546 31.0081 18.5021 30.6373 18.3374" stroke="black" stroke-width="2" stroke-linecap="round" stroke-linejoin="round"/>
</g>
<g clip-path="url(#clip1_256_2882)">
<path d="M42.6469 26.1237C42.7788 26.6737 42.9751 27.2249 43.3751 27.6249C43.7751 28.0249 44.3257 28.2212 44.8763 28.3531C45.7697 28.567 46.5535 29.1015 47.0789 29.855C47.6044 30.6086 47.835 31.5288 47.7269 32.4411C47.6188 33.3534 47.1796 34.1943 46.4927 34.8042C45.8057 35.4141 44.9187 35.7507 44.0001 35.7499C39.1676 35.7499 35.2501 31.8324 35.2501 26.9999C35.2493 26.0813 35.5859 25.1943 36.1958 24.5073C36.8057 23.8204 37.6466 23.3812 38.5589 23.2731C39.4712 23.165 40.3914 23.3956 41.145 23.9211C41.8985 24.4465 42.433 25.2303 42.6469 26.1237V26.1237Z" stroke="black" stroke-width="2" stroke-linecap="round" stroke-linejoin="round"/>
<path d="M45.6621 28.6374C45.4973 29.0082 45.2448 29.3333 44.9263 29.5847C44.6077 29.8361 44.2328 30.0061 43.8339 30.0802C43.4349 30.1542 43.0239 30.1301 42.6364 30.0098C42.2489 29.8895 41.8965 29.6767 41.6096 29.3898C41.3227 29.1028 41.11 28.7504 40.9898 28.3628C40.8695 27.9753 40.8455 27.5643 40.9196 27.1654C40.9938 26.7664 41.1639 26.3916 41.4153 26.0731C41.6667 25.7546 41.9919 25.5021 42.3627 25.3374" stroke="black" stroke-width="2" stroke-linecap="round" stroke-linejoin="round"/>
</g>
<g clip-path="url(#clip2_256_2882)">
<path d="M27.5739 34.3094C27.9136 34.7616 28.3128 35.1895 28.8388 35.3975C29.3648 35.6055 29.9481 35.5667 30.5058 35.4689C31.4106 35.3101 32.3423 35.4889 33.124 35.9715C33.9057 36.4541 34.483 37.2069 34.7465 38.0869C35.01 38.967 34.9412 39.9132 34.5533 40.7459C34.1654 41.5787 33.4853 42.24 32.642 42.6046C28.2077 44.5255 23.0558 42.488 21.1349 38.0537C20.769 37.211 20.7253 36.2634 21.0119 35.3906C21.2985 34.5177 21.8955 33.7805 22.6896 33.3187C23.4838 32.8569 24.4198 32.7027 25.3202 32.8853C26.2205 33.0679 27.0225 33.5747 27.5739 34.3094V34.3094Z" stroke="black" stroke-width="2" stroke-linecap="round" stroke-linejoin="round"/>
<path d="M31.3396 35.4177C31.3358 35.8235 31.2333 36.2222 31.0409 36.5795C30.8486 36.9367 30.5721 37.2418 30.2355 37.4684C29.8989 37.6949 29.5122 37.8361 29.1088 37.8798C28.7054 37.9234 28.2974 37.8683 27.9201 37.719C27.5428 37.5697 27.2075 37.3309 26.9431 37.0231C26.6787 36.7152 26.4933 36.3477 26.4027 35.9522C26.3122 35.5566 26.3193 35.145 26.4234 34.7528C26.5275 34.3606 26.7255 33.9997 27.0003 33.7012" stroke="black" stroke-width="2" stroke-linecap="round" stroke-linejoin="round"/>
</g>
<path d="M11.6665 56.8752C11.6665 54.9413 12.4347 53.0866 13.8022 51.7192C15.1696 50.3517 17.0243 49.5835 18.9582 49.5835H58.3332" stroke="black" stroke-width="2" stroke-linecap="round" stroke-linejoin="round"/>
<path d="M18.9582 5.8335H58.3332V64.1668H18.9582C17.0243 64.1668 15.1696 63.3986 13.8022 62.0311C12.4347 60.6637 11.6665 58.809 11.6665 56.8752V13.1252C11.6665 11.1913 12.4347 9.33663 13.8022 7.96918C15.1696 6.60172 17.0243 5.8335 18.9582 5.8335V5.8335Z" stroke="black" stroke-width="2" stroke-linecap="round" stroke-linejoin="round"/>
<defs>
<clipPath id="clip0_256_2882">
<rect width="15" height="15" fill="white" transform="translate(24 15)"/>
</clipPath>
<clipPath id="clip1_256_2882">
<rect width="15" height="15" fill="white" transform="matrix(-1 0 0 1 49 22)"/>
</clipPath>
<clipPath id="clip2_256_2882">
<rect width="15" height="15" fill="white" transform="matrix(-0.917601 0.397504 0.397504 0.917601 31.7642 28)"/>
</clipPath>
</defs>
</svg>
