<svg width="24" height="24" viewBox="0 0 24 24" fill="none" xmlns="http://www.w3.org/2000/svg">
<path d="M9.00021 9C8.36021 9.64 7.47921 9.954 6.59821 10.165C5.16877 10.5073 3.91472 11.3625 3.07399 12.5682C2.23327 13.7738 1.86437 15.2462 2.03728 16.7058C2.2102 18.1655 2.9129 19.5109 4.01205 20.4868C5.11121 21.4627 6.53035 22.0011 8.00021 22C9.83909 22.0023 11.6603 21.6413 13.3593 20.9377C15.0582 20.2341 16.6014 19.2018 17.9002 17.9" fill="#D2042D"/>
<path d="M9.00021 9C8.36021 9.64 7.47921 9.954 6.59821 10.165C5.16877 10.5073 3.91472 11.3625 3.07399 12.5682C2.23327 13.7738 1.86437 15.2462 2.03728 16.7058C2.2102 18.1655 2.9129 19.5109 4.01205 20.4868C5.11121 21.4627 6.53035 22.0011 8.00021 22C9.83909 22.0023 11.6603 21.6413 13.3593 20.9377C15.0582 20.2341 16.6014 19.2018 17.9002 17.9" stroke="black" stroke-width="2" stroke-linecap="round" stroke-linejoin="round"/>
<path d="M10.75 5.09282C11.3941 3.92875 12.4067 3.01175 13.6288 2.48599C14.8509 1.96023 16.213 1.85553 17.5011 2.18837C18.7892 2.5212 19.9301 3.27269 20.7445 4.32467C21.5588 5.37665 22.0005 6.66946 22 7.99983C22 10.4108 21.39 12.6798 20.317 14.6598" fill="#D2042D"/>
<path d="M10.75 5.09282C11.3941 3.92875 12.4067 3.01175 13.6288 2.48599C14.8509 1.96023 16.213 1.85553 17.5011 2.18837C18.7892 2.5212 19.9301 3.27269 20.7445 4.32467C21.5588 5.37665 22.0005 6.66946 22 7.99983C22 10.4108 21.39 12.6798 20.317 14.6598" stroke="black" stroke-width="2" stroke-linecap="round" stroke-linejoin="round"/>
<path d="M5.34082 10.6198C5.60388 11.214 6.00771 11.7351 6.5174 12.1381C7.02709 12.5411 7.62728 12.8139 8.26607 12.9328C8.90486 13.0518 9.56301 13.0133 10.1836 12.8208C10.8042 12.6283 11.3685 12.2874 11.8278 11.8278M10.6198 5.34082C11.5287 5.74479 12.2553 6.47174 12.6588 7.38082L10.6198 5.34082Z" fill="#D2042D"/>
<path d="M5.34082 10.6198C5.60388 11.214 6.00771 11.7351 6.5174 12.1381C7.02709 12.5411 7.62728 12.8139 8.26607 12.9328C8.90486 13.0518 9.56301 13.0133 10.1836 12.8208C10.8042 12.6283 11.3685 12.2874 11.8278 11.8278M10.6198 5.34082C11.5287 5.74479 12.2553 6.47174 12.6588 7.38082" stroke="black" stroke-width="2" stroke-linecap="round" stroke-linejoin="round"/>
<path d="M2 2L22 22" stroke="black" stroke-width="2" stroke-linecap="round" stroke-linejoin="round"/>
</svg>
