<svg width="45" height="45" viewBox="0 0 45 45" fill="none" xmlns="http://www.w3.org/2000/svg">
    <path d="M19.0592 12.3711C18.6636 14.0211 18.0748 15.6748 16.8748 16.8748C15.6748 18.0748 14.023 18.6636 12.3711 19.0592C9.69089 19.7011 7.33955 21.3045 5.76319 23.5651C4.18683 25.8258 3.49514 28.5864 3.81935 31.3233C4.14357 34.0601 5.46113 36.5828 7.52205 38.4126C9.58297 40.2423 12.2439 41.252 14.9998 41.2498C29.4973 41.2498 41.2498 29.4973 41.2498 14.9998C41.252 12.2439 40.2423 9.58297 38.4126 7.52205C36.5828 5.46113 34.0601 4.14357 31.3233 3.81935C28.5864 3.49514 25.8258 4.18683 23.5651 5.76319C21.3045 7.33955 19.7011 9.69089 19.0592 12.3711V12.3711Z" stroke="black" stroke-width="2" stroke-linecap="round" stroke-linejoin="round"/>
    <path d="M10.0146 19.9127C10.509 21.0251 11.2666 22.0004 12.2222 22.7545C13.1778 23.5086 14.3025 24.0188 15.4994 24.241C16.6962 24.4632 17.9291 24.3908 19.0917 24.0299C20.2543 23.6691 21.3115 23.0306 22.1722 22.1698C23.0329 21.309 23.6711 20.2516 24.0317 19.089C24.3923 17.9263 24.4646 16.6934 24.2421 15.4966C24.0197 14.2998 23.5093 13.1751 22.755 12.2197C22.0008 11.2643 21.0253 10.5068 19.9128 10.0127" stroke="black" stroke-width="2" stroke-linecap="round" stroke-linejoin="round"/>
</svg>
