<svg width="70" height="68" viewBox="0 0 70 68" fill="none" xmlns="http://www.w3.org/2000/svg">
    <path d="M29.6483 18.4945C29.0329 20.9612 28.1171 23.4334 26.2504 25.2274C24.3837 27.0213 21.8142 27.9015 19.2446 28.4929C15.0754 29.4525 11.4177 31.8494 8.96561 35.229C6.5135 38.6086 5.43754 42.7356 5.94187 46.8271C6.4462 50.9185 8.49574 54.6897 11.7016 57.4252C14.9075 60.1606 19.0466 61.6699 23.3337 61.6668C45.8854 61.6668 64.1671 44.0974 64.1671 22.4244C64.1704 18.3043 62.5998 14.3264 59.7535 11.2454C56.9072 8.16445 52.9831 6.19476 48.7258 5.71008C44.4684 5.2254 40.1741 6.25944 36.6575 8.61602C33.1409 10.9726 30.6468 14.4877 29.6483 18.4945V18.4945Z" fill="#FCDB4D" fill-opacity="0.6"/>
    <path d="M29.6483 18.4945C29.0329 20.9612 28.1171 23.4334 26.2504 25.2274C24.3837 27.0213 21.8142 27.9015 19.2446 28.4929C15.0754 29.4525 11.4177 31.8494 8.96561 35.229C6.5135 38.6086 5.43754 42.7356 5.94187 46.8271C6.4462 50.9185 8.49574 54.6897 11.7016 57.4252C14.9075 60.1606 19.0466 61.6699 23.3337 61.6668C45.8854 61.6668 64.1671 44.0974 64.1671 22.4244C64.1704 18.3043 62.5998 14.3264 59.7535 11.2454C56.9072 8.16445 52.9831 6.19476 48.7258 5.71008C44.4684 5.2254 40.1741 6.25944 36.6575 8.61602C33.1409 10.9726 30.6468 14.4877 29.6483 18.4945V18.4945Z" fill="url(#paint0_radial_49_4774)" fill-opacity="0.5"/>
    <path d="M29.6483 18.4945C29.0329 20.9612 28.1171 23.4334 26.2504 25.2274C24.3837 27.0213 21.8142 27.9015 19.2446 28.4929C15.0754 29.4525 11.4177 31.8494 8.96561 35.229C6.5135 38.6086 5.43754 42.7356 5.94187 46.8271C6.4462 50.9185 8.49574 54.6897 11.7016 57.4252C14.9075 60.1606 19.0466 61.6699 23.3337 61.6668C45.8854 61.6668 64.1671 44.0974 64.1671 22.4244C64.1704 18.3043 62.5998 14.3264 59.7535 11.2454C56.9072 8.16445 52.9831 6.19476 48.7258 5.71008C44.4684 5.2254 40.1741 6.25944 36.6575 8.61602C33.1409 10.9726 30.6468 14.4877 29.6483 18.4945V18.4945Z" stroke="black" stroke-width="3" stroke-linecap="round" stroke-linejoin="round"/>
    <path d="M15.5781 29.7683C16.3471 31.4312 17.5257 32.8893 19.0121 34.0167C20.4985 35.144 22.2482 35.9067 24.1099 36.2389C25.9717 36.5711 27.8895 36.4627 29.698 35.9233C31.5064 35.3838 33.1511 34.4294 34.4899 33.1425C35.8287 31.8556 36.8214 30.2749 37.3824 28.5368C37.9434 26.7987 38.0558 24.9556 37.7098 23.1664C37.3638 21.3773 36.5698 19.696 35.3965 18.2676C34.2232 16.8393 32.7057 15.7069 30.9752 14.9683" fill="white" fill-opacity="0.57"/>
    <path d="M15.5781 29.7683C16.3471 31.4312 17.5257 32.8893 19.0121 34.0167C20.4985 35.144 22.2482 35.9067 24.1099 36.2389C25.9717 36.5711 27.8895 36.4627 29.698 35.9233C31.5064 35.3838 33.1511 34.4294 34.4899 33.1425C35.8287 31.8556 36.8214 30.2749 37.3824 28.5368C37.9434 26.7987 38.0558 24.9556 37.7098 23.1664C37.3638 21.3773 36.5698 19.696 35.3965 18.2676C34.2232 16.8393 32.7057 15.7069 30.9752 14.9683" stroke="black" stroke-width="3" stroke-linecap="round" stroke-linejoin="round"/>
    <defs>
        <radialGradient id="paint0_radial_49_4774" cx="0" cy="0" r="1" gradientUnits="userSpaceOnUse" gradientTransform="translate(34.9937 33.63) rotate(90) scale(28.0368 29.1734)">
            <stop offset="0.223958" stop-color="#EDB40D" stop-opacity="0.03"/>
            <stop offset="0.8" stop-color="#EDB40D"/>
        </radialGradient>
    </defs>
</svg>
