<svg width="60" height="60" viewBox="0 0 34 34" fill="none" xmlns="http://www.w3.org/2000/svg">
<path d="M9.7998 28H23.7998" stroke="black" stroke-width="2" stroke-linecap="round" stroke-linejoin="round"/>
<path d="M14 28C21.7 24.5 15.12 19.04 18.2 14" stroke="black" stroke-width="2" stroke-linecap="round" stroke-linejoin="round"/>
<path d="M13.3001 13.16C14.8401 14.28 15.8201 16.24 16.5201 18.34C13.7201 18.9 11.6201 18.9 9.8001 17.92C8.1201 17.08 6.5801 15.26 5.6001 12.04C9.5201 11.34 11.7601 12.04 13.3001 13.16Z" fill="#228C22" stroke="black" stroke-width="2" stroke-linecap="round" stroke-linejoin="round"/>
<path d="M19.74 8.4001C18.6726 10.0683 18.1357 12.0207 18.2 14.0001C20.86 13.8601 22.82 13.1601 24.22 12.0401C25.62 10.6401 26.46 8.8201 26.6 5.6001C22.82 5.7401 21 7.0001 19.74 8.4001Z" fill="#228C22" stroke="black" stroke-width="2" stroke-linecap="round" stroke-linejoin="round"/>
</svg>
